# xmcd CD database file generated by OrangeCD 5.2
#
# Track frame offsets:
#	150
#	11337
#	30905
#	44830
#	58200
#	77127
#	94690
#	116990
#	141872
#	164250
#	188785
#	206557
#	248035
#	262120
#
# Disc length: 3696 seconds
#
# Revision: 2
# Processed by: cddbd v1.5.1PL0 Copyright (c) Steve Scherf et al.
# Submitted via: OrangeCD 5.2
#
DISCID=c40e6e0e
DTITLE=Various Artist - The Blues The Best Of 1920-1996   Disc 4 The Blues Rev
DTITLE=ival To The Present
DYEAR=2000
DGENRE=Blues Compilation
TTITLE0=Sonny Terry and Brownie McGhee - Bulldog Blues - 1920
TTITLE1=Son House - Death Letter - 1965
TTITLE2=Rising Sons - Dust My Broom - 1965
TTITLE3=Taj Mahal - Statesboro Blues - 1967
TTITLE4=The Electric Flag - Killing Floor - 1968
TTITLE5=Johnny Winter - Mean Mistreater - 1969
TTITLE6=Willie Dixon - Spoonful - 1970
TTITLE7=Shuggie Otis - Shuggie's Boogie - 1969
TTITLE8=Eddie Cleanhead Vinson - Cleanhead's Blues - 1970
TTITLE9=Muddy Waters - She's Nineteen Years Old - 1979
TTITLE10=The Fabulous Thunderbirds - Got Love If You Want It - 1980
TTITLE11=Stevie Ray Vaughan and Double Trouble - Tin Pan Alley - 1984
TTITLE12=Keb' Mo' - Momma, Where's My Daddy - 1996
TTITLE13=Alvin Youngblood Hart - France Blues - 1996
EXTD=
EXTT0=
EXTT1=
EXTT2=
EXTT3=
EXTT4=
EXTT5=
EXTT6=
EXTT7=
EXTT8=
EXTT9=
EXTT10=
EXTT11=
EXTT12=
EXTT13=
PLAYORDER=
